<svg width="693" height="433" xmlns="http://www.w3.org/2000/svg" xmlns:xlink="http://www.w3.org/1999/xlink" xml:space="preserve" overflow="hidden"><defs><clipPath id="clip0"><path d="M218.392 550.048 218.392 132.563C218.392 130.748 218.739 129.002 219.433 127.325 220.126 125.648 221.114 124.168 222.395 122.884 223.677 121.601 225.155 120.612 226.83 119.917 228.504 119.223 230.248 118.875 232.06 118.875L888.12 118.875C889.933 118.875 891.676 119.223 893.351 119.917 895.025 120.612 896.503 121.601 897.785 122.884 899.067 124.168 900.054 125.648 900.748 127.325 901.441 129.002 901.788 130.748 901.788 132.563L901.788 550.048C901.788 551.863 901.442 553.609 900.748 555.286 900.054 556.963 899.067 558.443 897.785 559.727 896.503 561.01 895.025 561.999 893.351 562.694 891.676 563.389 889.933 563.736 888.12 563.736L232.06 563.736C230.248 563.736 228.504 563.389 226.83 562.694 225.155 561.999 223.677 561.01 222.395 559.727 221.114 558.443 220.126 556.963 219.433 555.286 218.739 553.609 218.392 551.863 218.392 550.048Z"/></clipPath><clipPath id="clip1"><path d="M218.392 550.048 218.392 132.563C218.392 130.748 218.739 129.002 219.433 127.325 220.126 125.648 221.114 124.168 222.395 122.884 223.677 121.601 225.155 120.612 226.83 119.917 228.504 119.223 230.248 118.875 232.06 118.875L888.12 118.875C889.933 118.875 891.676 119.223 893.351 119.917 895.025 120.612 896.503 121.601 897.785 122.884 899.067 124.168 900.054 125.648 900.748 127.325 901.441 129.002 901.788 130.748 901.788 132.563L901.788 550.048C901.788 551.863 901.442 553.609 900.748 555.286 900.054 556.963 899.067 558.443 897.785 559.727 896.503 561.01 895.025 561.999 893.351 562.694 891.676 563.389 889.933 563.736 888.12 563.736L232.06 563.736C230.248 563.736 228.504 563.389 226.83 562.694 225.155 561.999 223.677 561.01 222.395 559.727 221.114 558.443 220.126 556.963 219.433 555.286 218.739 553.609 218.392 551.863 218.392 550.048Z"/></clipPath><clipPath id="clip2"><path d="M218.392 550.048 218.392 132.563C218.392 130.748 218.739 129.002 219.433 127.325 220.126 125.648 221.114 124.168 222.395 122.884 223.677 121.601 225.155 120.612 226.83 119.917 228.504 119.223 230.248 118.875 232.06 118.875L888.12 118.875C889.933 118.875 891.676 119.223 893.351 119.917 895.025 120.612 896.503 121.601 897.785 122.884 899.067 124.168 900.054 125.648 900.748 127.325 901.441 129.002 901.788 130.748 901.788 132.563L901.788 550.048C901.788 551.863 901.442 553.609 900.748 555.286 900.054 556.963 899.067 558.443 897.785 559.727 896.503 561.01 895.025 561.999 893.351 562.694 891.676 563.389 889.933 563.736 888.12 563.736L232.06 563.736C230.248 563.736 228.504 563.389 226.83 562.694 225.155 561.999 223.677 561.01 222.395 559.727 221.114 558.443 220.126 556.963 219.433 555.286 218.739 553.609 218.392 551.863 218.392 550.048Z"/></clipPath><clipPath id="clip3"><path d="M218.392 550.048 218.392 132.563C218.392 130.748 218.739 129.002 219.433 127.325 220.126 125.648 221.114 124.168 222.395 122.884 223.677 121.601 225.155 120.612 226.83 119.917 228.504 119.223 230.248 118.875 232.06 118.875L888.12 118.875C889.933 118.875 891.676 119.223 893.351 119.917 895.025 120.612 896.503 121.601 897.785 122.884 899.067 124.168 900.054 125.648 900.748 127.325 901.441 129.002 901.788 130.748 901.788 132.563L901.788 550.048C901.788 551.863 901.442 553.609 900.748 555.286 900.054 556.963 899.067 558.443 897.785 559.727 896.503 561.01 895.025 561.999 893.351 562.694 891.676 563.389 889.933 563.736 888.12 563.736L232.06 563.736C230.248 563.736 228.504 563.389 226.83 562.694 225.155 561.999 223.677 561.01 222.395 559.727 221.114 558.443 220.126 556.963 219.433 555.286 218.739 553.609 218.392 551.863 218.392 550.048Z"/></clipPath><clipPath id="clip4"><path d="M218.392 550.048 218.392 132.563C218.392 130.748 218.739 129.002 219.433 127.325 220.126 125.648 221.114 124.168 222.395 122.884 223.677 121.601 225.155 120.612 226.83 119.917 228.504 119.223 230.248 118.875 232.06 118.875L888.12 118.875C889.933 118.875 891.676 119.223 893.351 119.917 895.025 120.612 896.503 121.601 897.785 122.884 899.067 124.168 900.054 125.648 900.748 127.325 901.441 129.002 901.788 130.748 901.788 132.563L901.788 550.048C901.788 551.863 901.442 553.609 900.748 555.286 900.054 556.963 899.067 558.443 897.785 559.727 896.503 561.01 895.025 561.999 893.351 562.694 891.676 563.389 889.933 563.736 888.12 563.736L232.06 563.736C230.248 563.736 228.504 563.389 226.83 562.694 225.155 561.999 223.677 561.01 222.395 559.727 221.114 558.443 220.126 556.963 219.433 555.286 218.739 553.609 218.392 551.863 218.392 550.048Z"/></clipPath><clipPath id="clip5"><path d="M218.392 550.048 218.392 132.563C218.392 130.748 218.739 129.002 219.433 127.325 220.126 125.648 221.114 124.168 222.395 122.884 223.677 121.601 225.155 120.612 226.83 119.917 228.504 119.223 230.248 118.875 232.06 118.875L888.12 118.875C889.933 118.875 891.676 119.223 893.351 119.917 895.025 120.612 896.503 121.601 897.785 122.884 899.067 124.168 900.054 125.648 900.748 127.325 901.441 129.002 901.788 130.748 901.788 132.563L901.788 550.048C901.788 551.863 901.442 553.609 900.748 555.286 900.054 556.963 899.067 558.443 897.785 559.727 896.503 561.01 895.025 561.999 893.351 562.694 891.676 563.389 889.933 563.736 888.12 563.736L232.06 563.736C230.248 563.736 228.504 563.389 226.83 562.694 225.155 561.999 223.677 561.01 222.395 559.727 221.114 558.443 220.126 556.963 219.433 555.286 218.739 553.609 218.392 551.863 218.392 550.048Z"/></clipPath><clipPath id="clip6"><path d="M218.392 550.048 218.392 132.563C218.392 130.748 218.739 129.002 219.433 127.325 220.126 125.648 221.114 124.168 222.395 122.884 223.677 121.601 225.155 120.612 226.83 119.917 228.504 119.223 230.248 118.875 232.06 118.875L888.12 118.875C889.933 118.875 891.676 119.223 893.351 119.917 895.025 120.612 896.503 121.601 897.785 122.884 899.067 124.168 900.054 125.648 900.748 127.325 901.441 129.002 901.788 130.748 901.788 132.563L901.788 550.048C901.788 551.863 901.442 553.609 900.748 555.286 900.054 556.963 899.067 558.443 897.785 559.727 896.503 561.01 895.025 561.999 893.351 562.694 891.676 563.389 889.933 563.736 888.12 563.736L232.06 563.736C230.248 563.736 228.504 563.389 226.83 562.694 225.155 561.999 223.677 561.01 222.395 559.727 221.114 558.443 220.126 556.963 219.433 555.286 218.739 553.609 218.392 551.863 218.392 550.048Z"/></clipPath><clipPath id="clip7"><path d="M218.392 550.048 218.392 132.563C218.392 130.748 218.739 129.002 219.433 127.325 220.126 125.648 221.114 124.168 222.395 122.884 223.677 121.601 225.155 120.612 226.83 119.917 228.504 119.223 230.248 118.875 232.06 118.875L888.12 118.875C889.933 118.875 891.676 119.223 893.351 119.917 895.025 120.612 896.503 121.601 897.785 122.884 899.067 124.168 900.054 125.648 900.748 127.325 901.441 129.002 901.788 130.748 901.788 132.563L901.788 550.048C901.788 551.863 901.442 553.609 900.748 555.286 900.054 556.963 899.067 558.443 897.785 559.727 896.503 561.01 895.025 561.999 893.351 562.694 891.676 563.389 889.933 563.736 888.12 563.736L232.06 563.736C230.248 563.736 228.504 563.389 226.83 562.694 225.155 561.999 223.677 561.01 222.395 559.727 221.114 558.443 220.126 556.963 219.433 555.286 218.739 553.609 218.392 551.863 218.392 550.048Z"/></clipPath><clipPath id="clip8"><path d="M218.392 550.048 218.392 132.563C218.392 130.748 218.739 129.002 219.433 127.325 220.126 125.648 221.114 124.168 222.395 122.884 223.677 121.601 225.155 120.612 226.83 119.917 228.504 119.223 230.248 118.875 232.06 118.875L888.12 118.875C889.933 118.875 891.676 119.223 893.351 119.917 895.025 120.612 896.503 121.601 897.785 122.884 899.067 124.168 900.054 125.648 900.748 127.325 901.441 129.002 901.788 130.748 901.788 132.563L901.788 550.048C901.788 551.863 901.442 553.609 900.748 555.286 900.054 556.963 899.067 558.443 897.785 559.727 896.503 561.01 895.025 561.999 893.351 562.694 891.676 563.389 889.933 563.736 888.12 563.736L232.06 563.736C230.248 563.736 228.504 563.389 226.83 562.694 225.155 561.999 223.677 561.01 222.395 559.727 221.114 558.443 220.126 556.963 219.433 555.286 218.739 553.609 218.392 551.863 218.392 550.048Z"/></clipPath><clipPath id="clip9"><path d="M218.392 550.048 218.392 132.563C218.392 130.748 218.739 129.002 219.433 127.325 220.126 125.648 221.114 124.168 222.395 122.884 223.677 121.601 225.155 120.612 226.83 119.917 228.504 119.223 230.248 118.875 232.06 118.875L888.12 118.875C889.933 118.875 891.676 119.223 893.351 119.917 895.025 120.612 896.503 121.601 897.785 122.884 899.067 124.168 900.054 125.648 900.748 127.325 901.441 129.002 901.788 130.748 901.788 132.563L901.788 550.048C901.788 551.863 901.442 553.609 900.748 555.286 900.054 556.963 899.067 558.443 897.785 559.727 896.503 561.01 895.025 561.999 893.351 562.694 891.676 563.389 889.933 563.736 888.12 563.736L232.06 563.736C230.248 563.736 228.504 563.389 226.83 562.694 225.155 561.999 223.677 561.01 222.395 559.727 221.114 558.443 220.126 556.963 219.433 555.286 218.739 553.609 218.392 551.863 218.392 550.048Z"/></clipPath><clipPath id="clip10"><path d="M218.392 550.048 218.392 132.563C218.392 130.748 218.739 129.002 219.433 127.325 220.126 125.648 221.114 124.168 222.395 122.884 223.677 121.601 225.155 120.612 226.83 119.917 228.504 119.223 230.248 118.875 232.06 118.875L888.12 118.875C889.933 118.875 891.676 119.223 893.351 119.917 895.025 120.612 896.503 121.601 897.785 122.884 899.067 124.168 900.054 125.648 900.748 127.325 901.441 129.002 901.788 130.748 901.788 132.563L901.788 550.048C901.788 551.863 901.442 553.609 900.748 555.286 900.054 556.963 899.067 558.443 897.785 559.727 896.503 561.01 895.025 561.999 893.351 562.694 891.676 563.389 889.933 563.736 888.12 563.736L232.06 563.736C230.248 563.736 228.504 563.389 226.83 562.694 225.155 561.999 223.677 561.01 222.395 559.727 221.114 558.443 220.126 556.963 219.433 555.286 218.739 553.609 218.392 551.863 218.392 550.048Z"/></clipPath></defs><g transform="translate(-206 -114)"><g clip-path="url(#clip0)"><g><g><path d="M0 0C114.352 0 228.705 0 289.134 0M0 0C103.432 0 206.864 0 289.134 0" stroke="#1E1E1E" stroke-width="2.22411" stroke-linecap="round" fill="none" transform="matrix(1 0 0 1.00009 319.891 129.997)"/><path d="M0 0C0 11.1539 0 22.3078 0 43.6592M0 0C0 12.7219 0 25.4438 0 43.6592" stroke="#1E1E1E" stroke-width="2.22411" stroke-linecap="round" fill="none" transform="matrix(1 0 0 1.00009 608.662 130.733)"/><path d="M0 0C-9.19668 0-18.3934 0-44.4821 0M0 0C-17.5927 0-35.1854 0-44.4821 0" stroke="#1E1E1E" stroke-width="2.22411" stroke-linecap="round" fill="none" transform="matrix(1 0 0 1.00009 631.266 174.483)"/><path d="M0 0C0-36.3419 0-72.6727 0-111.205M0 0C0-34.7628 0-69.5256 0-111.205" stroke="#1E1E1E" stroke-width="2.22411" stroke-linecap="round" fill="none" transform="matrix(1 0 0 1.00009 631.266 285.698)"/><path d="M0 0C0-37.9544 0-75.8977 0-111.205M0 0C0-42.069 0-84.138 0-111.205" stroke="#1E1E1E" stroke-width="2.22411" stroke-linecap="round" fill="none" transform="matrix(1 0 0 1.00009 586.784 285.698)"/><path d="M0 0C-14.2676 0-28.5353 0-44.4821 0M0 0C-17.6038 0-35.1965 0-44.4821 0" stroke="#1E1E1E" stroke-width="2.22411" stroke-linecap="round" fill="none" transform="matrix(1 0 0 1.00009 631.266 285.698)"/><path d="M0 0C0 35.1965 0 70.393 0 88.9643M0 0C0 33.0502 0 66.0893 0 88.9643" stroke="#1E1E1E" stroke-width="2.22411" stroke-linecap="round" fill="none" transform="matrix(1 0 0 1.00009 609.025 285.698)"/><path d="M0 0C-15.0016 0-30.0032 0-44.4821 0M0 0C-14.0341 0-28.0571 0-44.4821 0" stroke="#1E1E1E" stroke-width="2.22411" stroke-linecap="round" fill="none" transform="matrix(1 0 0 1.00009 631.266 374.67)"/><path d="M0 0C0-30.081 0-60.1621 0-111.205M0 0C0-37.6764 0-75.3416 0-111.205" stroke="#1E1E1E" stroke-width="2.22411" stroke-linecap="round" fill="none" transform="matrix(1 0 0 1.00009 631.266 485.885)"/><path d="M0 0C0-28.2462 0-56.4923 0-111.205M0 0C0-34.1512 0-68.3135 0-111.205" stroke="#1E1E1E" stroke-width="2.22411" stroke-linecap="round" fill="none" transform="matrix(1 0 0 1.00009 586.784 485.885)"/><path d="M0 0C-9.48582 0-18.9828 0-44.4821 0M0 0C-9.57478 0-19.1384 0-44.4821 0" stroke="#1E1E1E" stroke-width="2.22411" stroke-linecap="round" fill="none" transform="matrix(1 0 0 1.00009 631.266 485.885)"/><path d="M0 0C0 12.9888 0 25.9887 0 44.4821M0 0C0 13.1334 0 26.2556 0 44.4821" stroke="#1E1E1E" stroke-width="2.22411" stroke-linecap="round" fill="none" transform="matrix(1 0 0 1.00009 609.025 485.885)"/><path d="M0 0C0 52.5223 0 105.045 0 177.929M0 0C0 63.0534 0 126.107 0 177.929" stroke="#1E1E1E" stroke-width="2.22411" stroke-linecap="round" fill="none" transform="matrix(1 0 0 1.00009 319.891 129.997)"/><path d="M0 0C104.933 0 209.878 0 289.134 0M0 0C63.287 0 126.574 0 289.134 0" stroke="#1E1E1E" stroke-width="2.22411" stroke-linecap="round" fill="none" transform="matrix(1 0 0 1.00009 319.891 530.371)"/><path d="M0 0C0 66.3118 0 132.635 0 200.17M0 0C0 40.3787 0 80.7573 0 200.17" stroke="#1E1E1E" stroke-width="2.22411" stroke-linecap="round" fill="none" transform="matrix(1 0 0 1.00009 319.891 330.184)"/><path d="M0 0C19.9947 0 39.9894 0 88.9643 0M0 0C22.8193 0 45.6276 0 88.9643 0" stroke="#1E1E1E" stroke-width="2.22411" stroke-linecap="round" fill="none" transform="matrix(1 0 0 1.00009 275.409 307.941)"/><path d="M0 0C14.2232 0 28.4352 0 44.4821 0M0 0C12.9554 0 25.922 0 44.4821 0" stroke="#1E1E1E" stroke-width="2.22411" stroke-linecap="round" fill="none" transform="matrix(1 0 0 1.00009 297.65 330.184)"/><path d="M0 0C14.8237-18.5379 74.1406-92.6674 88.9643-111.205M0 0C14.8237-18.5379 74.1406-92.6674 88.9643-111.205" stroke="#1E1E1E" stroke-width="2.22411" stroke-linecap="round" fill="none" transform="matrix(1 0 0 1.00009 275.409 374.67)"/><path d="M80.0679-84.8608C82.7368-92.7786 85.4168-100.696 88.9643-111.205M80.0679-84.8608C82.481-92.0113 84.8942-99.1507 88.9643-111.205" stroke="#1E1E1E" stroke-width="2.22411" stroke-linecap="round" fill="none" transform="matrix(1 0 0 1.00009 275.409 374.67)"/><path d="M65.2219-96.7487C72.3502-101.086 79.4896-105.434 88.9643-111.205M65.2219-96.7487C71.6607-100.663 78.0884-104.589 88.9643-111.205" stroke="#1E1E1E" stroke-width="2.22411" stroke-linecap="round" fill="none" transform="matrix(1 0 0 1.00009 275.409 374.67)"/><path d="M0 0C61.3965 0 122.793 0 200.17 0M0 0C73.5401 0 147.069 0 200.17 0" stroke="#1E1E1E" stroke-width="2.22411" stroke-linecap="round" fill="none" transform="matrix(1 0 0 1.00009 609.025 330.184)"/><path d="M0 0C-10.9204 0-21.8519 0-44.4821 0M0 0C-11.9212 0-23.8424 0-44.4821 0" stroke="#1E1E1E" stroke-width="2.22411" stroke-linecap="round" fill="none" transform="matrix(1 0 0 1.00009 831.436 374.67)"/><path d="M0 0C0-25.4104 0-50.8097 0-111.205M0 0C0-33.6952 0-67.3793 0-111.205" stroke="#1E1E1E" stroke-width="2.22411" stroke-linecap="round" fill="none" transform="matrix(1 0 0 1.00009 831.436 485.885)"/><path d="M0 0C0-31.2598 0-62.5308 0-111.205M0 0C0-29.2693 0-58.5385 0-111.205" stroke="#1E1E1E" stroke-width="2.22411" stroke-linecap="round" fill="none" transform="matrix(1 0 0 1.00009 786.953 485.885)"/><path d="M0 0C-12.4216 0-24.8322 0-44.4821 0M0 0C-16.0469 0-32.0939 0-44.4821 0" stroke="#1E1E1E" stroke-width="2.22411" stroke-linecap="round" fill="none" transform="matrix(1 0 0 1.00009 831.436 485.885)"/><path d="M0 0C0 16.8476 0 33.6952 0 44.4821M0 0C0 17.0923 0 34.1956 0 44.4821" stroke="#1E1E1E" stroke-width="2.22411" stroke-linecap="round" fill="none" transform="matrix(1 0 0 1.00009 809.194 330.184)"/><path d="M0 0C76.9319 0 153.875 0 200.17 0M0 0C72.2835 0 144.578 0 200.17 0" stroke="#1E1E1E" stroke-width="2.22411" stroke-linecap="round" fill="none" transform="matrix(1 0 0 1.00009 609.025 530.371)"/><path d="M0 0C0 17.3036 0 34.6182 0 44.4821M0 0C0 16.1359 0 32.2718 0 44.4821" stroke="#1E1E1E" stroke-width="2.22411" stroke-linecap="round" fill="none" transform="matrix(1 0 0 1.00009 809.194 485.885)"/><path d="M0 0C0 18.5379 0 92.6674 0 111.205M0 0C0 18.5379 0 92.6674 0 111.205" stroke="#1E1E1E" stroke-width="2.22411" stroke-linecap="round" fill="none" transform="matrix(1 0 0 1.00009 653.507 374.67)"/><path d="M-9.50806 85.0832C-6.06069 94.5579-2.61333 104.033 0 111.205M-9.50806 85.0832C-7.17275 91.4886-4.84855 97.8941 0 111.205" stroke="#1E1E1E" stroke-width="2.22411" stroke-linecap="round" fill="none" transform="matrix(1 0 0 1.00009 653.507 374.67)"/><path d="M9.50806 85.0832C6.06069 94.5579 2.61333 104.033 0 111.205M9.50806 85.0832C7.17275 91.4886 4.84855 97.8941 0 111.205" stroke="#1E1E1E" stroke-width="2.22411" stroke-linecap="round" fill="none" transform="matrix(1 0 0 1.00009 653.507 374.67)"/><path d="M0 0C0 18.5379 0 92.6674 0 111.205M0 0C0 18.5379 0 92.6674 0 111.205" stroke="#1E1E1E" stroke-width="2.22411" stroke-linecap="round" fill="none" transform="matrix(1 0 0 1.00009 853.677 374.67)"/><path d="M-9.50806 85.0832C-6.04957 94.5802-2.59108 104.077 0 111.205M-9.50806 85.0832C-7.50636 90.5768-5.50467 96.0703 0 111.205" stroke="#1E1E1E" stroke-width="2.22411" stroke-linecap="round" fill="none" transform="matrix(1 0 0 1.00009 853.677 374.67)"/><path d="M9.50806 85.0832C6.04957 94.5802 2.59108 104.077 0 111.205M9.50806 85.0832C7.50636 90.5768 5.50467 96.0703 0 111.205" stroke="#1E1E1E" stroke-width="2.22411" stroke-linecap="round" fill="none" transform="matrix(1 0 0 1.00009 853.677 374.67)"/><path d="M0 0C0 18.5379 0 92.6674 0 111.205M0 0C0 18.5379 0 92.6674 0 111.205" stroke="#1E1E1E" stroke-width="2.22411" stroke-linecap="round" fill="none" transform="matrix(1 0 0 1.00009 653.507 174.483)"/><path d="M-9.50806 85.0832C-6.34983 93.7572-3.19159 102.431 0 111.205M-9.50806 85.0832C-6.06069 94.5468-2.62445 103.999 0 111.205" stroke="#1E1E1E" stroke-width="2.22411" stroke-linecap="round" fill="none" transform="matrix(1 0 0 1.00009 653.507 174.483)"/><path d="M9.50806 85.0832C6.34983 93.7572 3.19159 102.431 0 111.205M9.50806 85.0832C6.06069 94.5468 2.62445 103.999 0 111.205" stroke="#1E1E1E" stroke-width="2.22411" stroke-linecap="round" fill="none" transform="matrix(1 0 0 1.00009 653.507 174.483)"/></g></g></g><g clip-path="url(#clip1)"><g><g><g><g><g><path d="M5.13417 14.2194C4.73236 14.2194 4.49426 14.2269 4.41985 14.2417 4.34544 14.2566 4.30824 14.3385 4.30824 14.4873 4.30824 14.8891 4.39009 15.1346 4.55378 15.2239 4.58355 15.2388 5.87825 15.2462 8.43789 15.2462 10.9975 15.2314 12.3815 15.209 12.5899 15.1793 13.4232 15.0602 14.1227 14.8519 14.6882 14.5542 15.2537 14.2566 15.6555 13.9143 15.8936 13.5274 16.1317 13.1405 16.288 12.8205 16.3624 12.5675 16.4368 12.3146 16.4814 12.0616 16.4963 11.8086 16.4963 11.1389 16.2805 10.5139 15.849 9.9335 15.4174 9.35311 14.9188 8.90666 14.3533 8.59415 13.7878 8.28164 13.2893 8.02865 12.8577 7.83519 12.4262 7.64173 12.1434 7.54499 12.0095 7.54499L12.1657 7.43338C13.1628 6.86788 13.6614 6.04939 13.6614 4.97791 13.6614 4.81421 13.6241 4.36032 13.5497 3.61624 13.4753 2.87216 13.4381 2.26201 13.4381 1.7858L13.4381 1.5849C13.4381 1.31703 13.4456 1.10868 13.4604 0.959866 13.4753 0.81105 13.5572 0.677115 13.706 0.558062 13.8548 0.439009 14.0483 0.372041 14.2864 0.357159 14.7031 0.357159 15.0453 0.520858 15.3132 0.848254 15.5811 1.17565 15.7745 1.52537 15.8936 1.89741 15.968 2.10575 16.0275 2.23225 16.0722 2.27689 16.1168 2.32154 16.2284 2.34386 16.407 2.34386 16.7046 2.34386 16.8535 2.25457 16.8535 2.07599 16.8535 1.80812 16.6749 1.38399 16.3177 0.803609 15.7522-0.0446449 15.0825-0.468772 14.3087-0.468772L14.1078-0.468772C13.2-0.468772 12.4485-0.282751 11.8532 0.0892899 11.258 0.461331 10.9306 1.04172 10.871 1.83044 10.871 2.23225 10.9827 2.85728 11.2059 3.70553 11.4291 4.55378 11.5407 5.09696 11.5407 5.33507 11.5407 6.09403 11.2208 6.64465 10.5808 6.98693 10.3576 7.0911 10.1716 7.15063 10.0228 7.16551 9.87397 7.18039 9.34567 7.19528 8.43789 7.21016L6.89764 7.21016 6.18332 4.30824C5.69223 2.34386 5.44668 1.34679 5.44668 1.31703 5.44668 1.2575 5.45412 1.22029 5.469 1.20541 5.48389 1.19053 5.53597 1.16077 5.62526 1.11612 5.71455 1.07148 5.84105 1.0566 6.00474 1.07148 6.16844 1.08636 6.41399 1.07148 6.74139 1.02683L7.43338 1.02683C7.52267 0.90778 7.56732 0.840813 7.56732 0.825931 7.56732 0.81105 7.54499 0.677115 7.50035 0.424127 7.44082 0.230666 7.36641 0.0892899 7.27712 0L6.94229 0C6.40655 0.0297633 5.4318 0.0446449 4.01804 0.0446449 3.51207 0.0446449 3.0433 0.0446449 2.61173 0.0446449 2.18016 0.0446449 1.83788 0.0446449 1.5849 0.0446449 1.33191 0.0446449 1.17565 0.0372041 1.11612 0.0223225 0.863135 0.0223225 0.736641 0.0892899 0.736641 0.223225 0.736641 0.252988 0.758964 0.357159 0.803609 0.535739 0.878017 0.818491 0.952425 0.974748 1.02683 1.00451 1.08636 1.01939 1.19797 1.02683 1.36167 1.02683L1.49561 1.02683C1.89741 1.02683 2.34386 1.04916 2.83495 1.0938 3.0433 1.13845 3.18467 1.22774 3.25908 1.36167 3.30373 1.4212 3.83946 3.48975 4.8663 7.56732 5.89313 11.6449 6.40655 13.7953 6.40655 14.0185 6.40655 14.1227 5.98242 14.1896 5.13417 14.2194ZM14.0632 12.3666C14.0632 12.8429 13.9069 13.2447 13.5944 13.5721 13.2819 13.8995 12.642 14.1078 11.6747 14.1971 11.6449 14.1971 11.4737 14.1971 11.1612 14.1971 10.8487 14.1971 10.566 14.2045 10.313 14.2194L9.82189 14.2194C9.12245 14.2194 8.72064 14.145 8.61647 13.9962 8.60159 13.9515 8.3486 12.9619 7.85751 11.0273 7.36641 9.09268 7.12087 8.10306 7.12087 8.05841 7.12087 8.04353 7.63428 8.03609 8.66112 8.03609 9.82189 8.05097 10.5957 8.10306 10.9827 8.19235 11.9351 8.34116 12.6792 8.78017 13.2149 9.50937 13.453 9.85165 13.6539 10.2981 13.8176 10.8487 13.9813 11.3993 14.0632 11.9053 14.0632 12.3666Z" transform="matrix(1 0 0 -1.01678 595.584 234.471)"/><path d="M3.36156 9.12199 3.1564 9.04308C3.0091 8.99047 2.79867 8.93786 2.52512 8.88526 2.25156 8.83265 1.94644 8.79583 1.60976 8.77478L1.3099 8.77478 1.3099 9.50076 1.60976 9.50076C2.10426 9.5218 2.56194 9.60071 2.9828 9.73748 3.40365 9.87426 3.69825 10.0005 3.86659 10.1163 4.03493 10.232 4.18223 10.3477 4.30848 10.4635 4.32952 10.495 4.39265 10.5108 4.49787 10.5108 4.59256 10.5108 4.68199 10.4792 4.76616 10.4161L4.76616 5.6973 4.78194 0.962701C4.85559 0.889052 4.91872 0.841706 4.97133 0.820663 5.02393 0.799621 5.15019 0.778578 5.35009 0.757535 5.55 0.736493 5.87616 0.725971 6.32858 0.725971L6.73891 0.725971 6.73891 0 6.56531 0C6.34436 0.031564 5.50791 0.047346 4.05597 0.047346 2.62507 0.047346 1.79915 0.031564 1.5782 0L1.38881 0 1.38881 0.725971 1.79915 0.725971C2.03062 0.725971 2.23052 0.725971 2.39886 0.725971 2.5672 0.725971 2.69872 0.731232 2.79341 0.741753 2.8881 0.752275 2.97227 0.768057 3.04592 0.789099 3.11957 0.810142 3.16166 0.820663 3.17218 0.820663 3.1827 0.820663 3.21426 0.846967 3.26687 0.899573 3.31948 0.95218 3.35104 0.973222 3.36156 0.962701L3.36156 9.12199Z" transform="matrix(1 0 0 -1.01678 613.263 237.875)"/></g></g></g></g></g></g><g clip-path="url(#clip2)"><g><g><g><g><g><path d="M5.13417 14.2194C4.73236 14.2194 4.49426 14.2269 4.41985 14.2417 4.34544 14.2566 4.30824 14.3385 4.30824 14.4873 4.30824 14.8891 4.39009 15.1346 4.55378 15.2239 4.58355 15.2388 5.87825 15.2462 8.43789 15.2462 10.9975 15.2314 12.3815 15.209 12.5899 15.1793 13.4232 15.0602 14.1227 14.8519 14.6882 14.5542 15.2537 14.2566 15.6555 13.9143 15.8936 13.5274 16.1317 13.1405 16.288 12.8205 16.3624 12.5675 16.4368 12.3146 16.4814 12.0616 16.4963 11.8086 16.4963 11.1389 16.2805 10.5139 15.849 9.9335 15.4174 9.35311 14.9188 8.90666 14.3533 8.59415 13.7878 8.28164 13.2893 8.02865 12.8577 7.83519 12.4262 7.64173 12.1434 7.54499 12.0095 7.54499L12.1657 7.43338C13.1628 6.86788 13.6614 6.04939 13.6614 4.97791 13.6614 4.81421 13.6241 4.36032 13.5497 3.61624 13.4753 2.87216 13.4381 2.26201 13.4381 1.7858L13.4381 1.5849C13.4381 1.31703 13.4456 1.10868 13.4604 0.959866 13.4753 0.81105 13.5572 0.677115 13.706 0.558062 13.8548 0.439009 14.0483 0.372041 14.2864 0.357159 14.7031 0.357159 15.0453 0.520858 15.3132 0.848254 15.5811 1.17565 15.7745 1.52537 15.8936 1.89741 15.968 2.10575 16.0275 2.23225 16.0722 2.27689 16.1168 2.32154 16.2284 2.34386 16.407 2.34386 16.7046 2.34386 16.8535 2.25457 16.8535 2.07599 16.8535 1.80812 16.6749 1.38399 16.3177 0.803609 15.7522-0.0446449 15.0825-0.468772 14.3087-0.468772L14.1078-0.468772C13.2-0.468772 12.4485-0.282751 11.8532 0.0892899 11.258 0.461331 10.9306 1.04172 10.871 1.83044 10.871 2.23225 10.9827 2.85728 11.2059 3.70553 11.4291 4.55378 11.5407 5.09696 11.5407 5.33507 11.5407 6.09403 11.2208 6.64465 10.5808 6.98693 10.3576 7.0911 10.1716 7.15063 10.0228 7.16551 9.87397 7.18039 9.34567 7.19528 8.43789 7.21016L6.89764 7.21016 6.18332 4.30824C5.69223 2.34386 5.44668 1.34679 5.44668 1.31703 5.44668 1.2575 5.45412 1.22029 5.469 1.20541 5.48389 1.19053 5.53597 1.16077 5.62526 1.11612 5.71455 1.07148 5.84105 1.0566 6.00474 1.07148 6.16844 1.08636 6.41399 1.07148 6.74139 1.02683L7.43338 1.02683C7.52267 0.90778 7.56732 0.840813 7.56732 0.825931 7.56732 0.81105 7.54499 0.677115 7.50035 0.424127 7.44082 0.230666 7.36641 0.0892899 7.27712 0L6.94229 0C6.40655 0.0297633 5.4318 0.0446449 4.01804 0.0446449 3.51207 0.0446449 3.0433 0.0446449 2.61173 0.0446449 2.18016 0.0446449 1.83788 0.0446449 1.5849 0.0446449 1.33191 0.0446449 1.17565 0.0372041 1.11612 0.0223225 0.863135 0.0223225 0.736641 0.0892899 0.736641 0.223225 0.736641 0.252988 0.758964 0.357159 0.803609 0.535739 0.878017 0.818491 0.952425 0.974748 1.02683 1.00451 1.08636 1.01939 1.19797 1.02683 1.36167 1.02683L1.49561 1.02683C1.89741 1.02683 2.34386 1.04916 2.83495 1.0938 3.0433 1.13845 3.18467 1.22774 3.25908 1.36167 3.30373 1.4212 3.83946 3.48975 4.8663 7.56732 5.89313 11.6449 6.40655 13.7953 6.40655 14.0185 6.40655 14.1227 5.98242 14.1896 5.13417 14.2194ZM14.0632 12.3666C14.0632 12.8429 13.9069 13.2447 13.5944 13.5721 13.2819 13.8995 12.642 14.1078 11.6747 14.1971 11.6449 14.1971 11.4737 14.1971 11.1612 14.1971 10.8487 14.1971 10.566 14.2045 10.313 14.2194L9.82189 14.2194C9.12245 14.2194 8.72064 14.145 8.61647 13.9962 8.60159 13.9515 8.3486 12.9619 7.85751 11.0273 7.36641 9.09268 7.12087 8.10306 7.12087 8.05841 7.12087 8.04353 7.63428 8.03609 8.66112 8.03609 9.82189 8.05097 10.5957 8.10306 10.9827 8.19235 11.9351 8.34116 12.6792 8.78017 13.2149 9.50937 13.453 9.85165 13.6539 10.2981 13.8176 10.8487 13.9813 11.3993 14.0632 11.9053 14.0632 12.3666Z" transform="matrix(1 0 0 -1.01678 594.784 434.818)"/><path d="M1.72024 6.77047C1.43616 6.77047 1.20995 6.86516 1.04161 7.05455 0.87327 7.24393 0.789099 7.4754 0.789099 7.74895 0.789099 8.49597 1.06791 9.14303 1.62554 9.69014 2.18317 10.2372 2.87758 10.5108 3.70877 10.5108 4.66621 10.5108 5.46583 10.2162 6.10763 9.62701 6.74943 9.03782 7.07559 8.27502 7.08611 7.33862 7.08611 6.88621 6.9809 6.45483 6.77047 6.0445 6.56005 5.63417 6.30753 5.27644 6.01294 4.97133 5.71834 4.66621 5.29749 4.27692 4.75038 3.80346 4.37161 3.4773 3.84554 2.99332 3.17218 2.35152L2.24104 1.46772 3.44047 1.45194C5.09232 1.45194 5.97085 1.47825 6.07606 1.53085 6.14971 1.5519 6.27597 2.02009 6.45483 2.93545L6.45483 2.9828 7.08611 2.9828 7.08611 2.93545C7.07559 2.90389 7.0072 2.42517 6.88095 1.49929 6.75469 0.573412 6.67578 0.0894313 6.64422 0.047346L6.64422 0 0.789099 0 0.789099 0.299858 0.789099 0.489242C0.789099 0.562891 0.820663 0.641801 0.883791 0.725971 0.946919 0.810142 1.10474 0.994265 1.35725 1.27834 1.66237 1.61502 1.9254 1.90962 2.14635 2.16213 2.24104 2.26735 2.4199 2.46199 2.68294 2.74607 2.94597 3.03014 3.12483 3.22479 3.21953 3.33 3.31422 3.43521 3.46678 3.60881 3.6772 3.8508 3.88763 4.09279 4.03493 4.27166 4.1191 4.38739 4.20327 4.50313 4.32426 4.66095 4.48208 4.86085 4.6399 5.06076 4.75038 5.2291 4.81351 5.36588 4.87663 5.50265 4.95554 5.65521 5.05024 5.82355 5.14493 5.99189 5.21332 6.16024 5.2554 6.32858 5.29749 6.49692 5.33431 6.65474 5.36588 6.80204 5.39744 6.94933 5.41322 7.12294 5.41322 7.32284 5.41322 7.98568 5.23436 8.5591 4.87663 9.04308 4.51891 9.52706 4.00862 9.76905 3.34578 9.76905 2.99858 9.76905 2.69346 9.67962 2.43043 9.50076 2.16739 9.32189 1.98327 9.14829 1.87806 8.97995 1.77284 8.81161 1.72024 8.71166 1.72024 8.68009 1.72024 8.66957 1.74654 8.66431 1.79915 8.66431 1.98853 8.66431 2.18317 8.59066 2.38308 8.44336 2.58299 8.29606 2.68294 8.05407 2.68294 7.71739 2.68294 7.45436 2.59877 7.23341 2.43043 7.05455 2.26208 6.87568 2.02535 6.78099 1.72024 6.77047Z" transform="matrix(1 0 0 -1.01678 612.463 438.223)"/></g></g></g></g></g></g><g clip-path="url(#clip3)"><g><g><g><g><g><path d="M5.12434 14.1922C4.7233 14.1922 4.48565 14.1996 4.41139 14.2145 4.33712 14.2293 4.29999 14.311 4.29999 14.4595 4.29999 14.8606 4.38168 15.1057 4.54506 15.1948 4.57477 15.2096 5.86699 15.2171 8.42174 15.2171 10.9765 15.2022 12.3578 15.1799 12.5658 15.1502 13.3975 15.0314 14.0956 14.8234 14.6601 14.5264 15.2245 14.2293 15.6255 13.8877 15.8632 13.5015 16.1008 13.1153 16.2568 12.796 16.331 12.5435 16.4053 12.291 16.4499 12.0385 16.4647 11.786 16.4647 11.1176 16.2493 10.4938 15.8186 9.91448 15.3879 9.33521 14.8903 8.88961 14.3259 8.57769 13.7614 8.26578 13.2639 8.01328 12.8331 7.82018 12.4024 7.62709 12.1202 7.53055 11.9865 7.53055L12.1425 7.41915C13.1376 6.85473 13.6352 6.03781 13.6352 4.96838 13.6352 4.805 13.5981 4.35197 13.5238 3.60932 13.4495 2.86666 13.4124 2.25768 13.4124 1.78238L13.4124 1.58186C13.4124 1.3145 13.4198 1.10656 13.4347 0.958028 13.4495 0.809497 13.5312 0.675818 13.6798 0.556993 13.8283 0.438168 14.0214 0.371329 14.259 0.356476 14.6749 0.356476 15.0165 0.51986 15.2839 0.84663 15.5513 1.1734 15.7443 1.52245 15.8632 1.89378 15.9374 2.10172 15.9968 2.22797 16.0414 2.27253 16.086 2.31709 16.1974 2.33937 16.3756 2.33937 16.6727 2.33937 16.8212 2.25025 16.8212 2.07201 16.8212 1.80466 16.643 1.38134 16.2865 0.80207 15.7221-0.0445595 15.0537-0.467874 14.2813-0.467874L14.0808-0.467874C13.1747-0.467874 12.4247-0.28221 11.8305 0.0891189 11.2364 0.460448 10.9096 1.03972 10.8502 1.82694 10.8502 2.22797 10.9616 2.85181 11.1844 3.69843 11.4072 4.54506 11.5186 5.0872 11.5186 5.32485 11.5186 6.08237 11.1993 6.63193 10.5606 6.97356 10.3378 7.07753 10.1521 7.13694 10.0036 7.15179 9.85507 7.16665 9.32778 7.1815 8.42174 7.19635L6.88444 7.19635 6.17148 4.29999C5.68133 2.33937 5.43625 1.34421 5.43625 1.3145 5.43625 1.25509 5.44368 1.21796 5.45853 1.20311 5.47339 1.18825 5.52537 1.15855 5.61449 1.11399 5.70361 1.06943 5.82986 1.05457 5.99325 1.06943 6.15663 1.08428 6.40171 1.06943 6.72848 1.02487L7.41915 1.02487C7.50827 0.906042 7.55283 0.839203 7.55283 0.82435 7.55283 0.809497 7.53055 0.675818 7.48599 0.423315 7.42658 0.230224 7.35231 0.0891189 7.26319 0L6.929 0C6.39428 0.0297063 5.4214 0.0445595 4.01035 0.0445595 3.50534 0.0445595 3.03747 0.0445595 2.60673 0.0445595 2.17599 0.0445595 1.83436 0.0445595 1.58186 0.0445595 1.32936 0.0445595 1.1734 0.0371329 1.11399 0.0222797 0.861483 0.0222797 0.735231 0.0891189 0.735231 0.222797 0.735231 0.252504 0.757511 0.356476 0.80207 0.534714 0.876336 0.816923 0.950602 0.972881 1.02487 1.00259 1.08428 1.01744 1.19568 1.02487 1.35906 1.02487L1.49274 1.02487C1.89378 1.02487 2.33937 1.04715 2.82953 1.09171 3.03747 1.13627 3.17857 1.22539 3.25284 1.35906 3.2974 1.41848 3.83211 3.48306 4.85698 7.55283 5.88185 11.6226 6.39428 13.7689 6.39428 13.9917 6.39428 14.0956 5.97097 14.1625 5.12434 14.1922ZM14.0362 12.343C14.0362 12.8183 13.8803 13.2193 13.5684 13.5461 13.2564 13.8728 12.6178 14.0808 11.6523 14.1699 11.6226 14.1699 11.4518 14.1699 11.1399 14.1699 10.8279 14.1699 10.5457 14.1773 10.2932 14.1922L9.80308 14.1922C9.10498 14.1922 8.70395 14.1179 8.59997 13.9694 8.58512 13.9248 8.33262 12.9371 7.84246 11.0062 7.35231 9.07528 7.10723 8.08754 7.10723 8.04298 7.10723 8.02813 7.61967 8.0207 8.64453 8.0207 9.80308 8.03555 10.5754 8.08754 10.9616 8.17666 11.9122 8.32519 12.6549 8.76336 13.1896 9.49116 13.4272 9.83279 13.6278 10.2784 13.7912 10.8279 13.9545 11.3775 14.0362 11.8825 14.0362 12.343Z" transform="matrix(1.00144 0 0 -1 795.28 434.533)"/><path d="M2.00047 7.29307C1.71694 7.29307 1.49642 7.38233 1.3389 7.56085 1.18138 7.73937 1.09737 7.9704 1.08687 8.25393 1.08687 8.83149 1.3389 9.34605 1.84296 9.7976 2.34701 10.2492 2.95608 10.4749 3.67016 10.4749 4.0377 10.4749 4.26873 10.4697 4.36324 10.4592 5.14033 10.3332 5.73364 10.0549 6.14319 9.62433 6.55274 9.19378 6.76276 8.72648 6.77326 8.22242 6.77326 7.67636 6.59474 7.14605 6.2377 6.63149 5.88066 6.11694 5.38711 5.74415 4.75703 5.51312L4.70978 5.48162C4.70978 5.47111 4.75703 5.45536 4.85154 5.43436 4.94606 5.41336 5.09832 5.3661 5.30835 5.29259 5.51837 5.21909 5.71789 5.10882 5.90691 4.96181 6.76801 4.40524 7.19856 3.67016 7.19856 2.75656 7.19856 1.92697 6.87302 1.20239 6.22195 0.582815 5.57088-0.0367542 4.74653-0.346539 3.74892-0.346539 2.90883-0.346539 2.18425-0.120764 1.57518 0.330787 0.966109 0.782338 0.661574 1.35465 0.661574 2.04773 0.661574 2.34176 0.756085 2.57804 0.945106 2.75656 1.13413 2.93508 1.3704 3.02959 1.65394 3.04009 1.94797 3.04009 2.1895 2.94558 2.37852 2.75656 2.56754 2.56754 2.66205 2.33126 2.66205 2.04773 2.66205 1.93222 2.6463 1.82721 2.61479 1.73269 2.58329 1.63818 2.54654 1.55417 2.50453 1.48067 2.46253 1.40716 2.40477 1.34415 2.33126 1.29165 2.25775 1.23914 2.19475 1.19713 2.14224 1.16563 2.08973 1.13413 2.03723 1.11312 1.98472 1.10262 1.93222 1.09212 1.89021 1.07637 1.85871 1.05537L1.7957 1.03962C2.33126 0.567064 2.98234 0.330787 3.74892 0.330787 4.32649 0.330787 4.76229 0.609068 5.05632 1.16563 5.23484 1.51217 5.3241 2.04248 5.3241 2.75656L5.3241 3.0716C5.3241 4.06921 4.98806 4.73603 4.31598 5.07207 4.15847 5.13508 3.83818 5.17183 3.35513 5.18233L2.69355 5.19808 2.6463 5.22959C2.62529 5.26109 2.61479 5.3451 2.61479 5.48162 2.61479 5.67064 2.6568 5.76515 2.74081 5.76515 3.03484 5.76515 3.33938 5.7914 3.65441 5.84391 4.01145 5.89641 4.33699 6.11694 4.63102 6.50548 4.92505 6.89402 5.07207 7.48209 5.07207 8.26968L5.07207 8.39569C5.07207 8.99426 4.8883 9.40906 4.52076 9.64008 4.28973 9.7871 4.04295 9.86061 3.78042 9.86061 3.44439 9.86061 3.1346 9.80285 2.85107 9.68734 2.56754 9.57183 2.36802 9.45106 2.2525 9.32505 2.13699 9.19903 2.07923 9.13603 2.07923 9.13603L2.12649 9.13603C2.15799 9.12552 2.2 9.11502 2.2525 9.10452 2.30501 9.09402 2.35751 9.06777 2.41002 9.02576 2.46253 8.98376 2.52553 8.94701 2.59904 8.9155 2.67255 8.884 2.72506 8.82624 2.75656 8.74223 2.78806 8.65822 2.83007 8.57946 2.88257 8.50596 2.93508 8.43245 2.95083 8.32744 2.92983 8.19092 2.92983 7.95989 2.85632 7.75512 2.7093 7.5766 2.56229 7.39808 2.32601 7.30357 2.00047 7.29307Z" transform="matrix(1.00144 0 0 -1 812.951 437.875)"/></g></g></g></g></g></g><g clip-path="url(#clip4)"><g><g><g><g><g><path d="M1.30445 16.2554C1.30445 16.6234 1.41315 16.916 1.63056 17.1334L1.9065 17.1334C2.6089 17.0833 3.48689 17.0582 4.54049 17.0582 6.51388 17.0582 7.67618 17.0833 8.02738 17.1334L8.27823 17.1334C8.37858 17.0331 8.42875 16.9578 8.42875 16.9077 8.42875 16.8575 8.41202 16.707 8.37858 16.4561 8.29496 16.2053 8.2197 16.0464 8.15281 15.9795L7.62601 15.9795C7.25809 15.9461 7.00723 15.9293 6.87344 15.9293 6.38845 15.8457 6.12088 15.7203 6.0707 15.553 6.0707 15.5196 6.3132 13.4208 6.79819 9.25657 7.28317 5.09237 7.53403 2.99354 7.55075 2.9601L9.382 5.89511C10.6028 7.85178 11.8237 9.82518 13.0445 11.8153 14.2653 13.8054 14.8925 14.8339 14.9259 14.9008 14.9928 15.0179 15.0262 15.1433 15.0262 15.2771 15.0262 15.6785 14.6583 15.9126 13.9225 15.9795 13.6215 15.9795 13.4709 16.0715 13.4709 16.2554 13.4709 16.2722 13.4877 16.3809 13.5211 16.5816 13.5713 16.8157 13.6215 16.9662 13.6716 17.0331 13.7218 17.1 13.8305 17.1334 13.9977 17.1334 14.0312 17.1334 14.1315 17.1334 14.2988 17.1334 14.466 17.1334 14.7503 17.1251 15.1517 17.1083 15.553 17.0916 16.0882 17.0833 16.7572 17.0833 17.9111 17.0833 18.6386 17.1 18.9396 17.1334L19.1152 17.1334C19.2323 17.0164 19.2908 16.9244 19.2908 16.8575 19.2908 16.5732 19.2155 16.3056 19.065 16.0548 19.0149 16.0046 18.8727 15.9795 18.6386 15.9795 18.4212 15.9628 18.2205 15.9461 18.0365 15.9293 17.8526 15.9126 17.677 15.8708 17.5097 15.8039 17.3425 15.737 17.2087 15.6785 17.1083 15.6283 17.008 15.5781 16.9077 15.5112 16.8073 15.4276 16.707 15.344 16.6234 15.2855 16.5565 15.252 16.4896 15.2186 16.4227 15.1433 16.3558 15.0262 16.2889 14.9092 16.2304 14.8506 16.1802 14.8506L11.3387 7.07413C8.3284 2.20753 6.7731-0.284303 6.67276-0.401369 6.62259-0.434816 6.56405-0.476626 6.49716-0.526797L6.04562-0.551882 5.87002-0.551882C5.56899-0.551882 5.41848-0.493349 5.41848-0.376283 5.36831-0.275941 5.0422 2.39985 4.44014 7.65109 3.80464 12.9692 3.47853 15.6534 3.46181 15.7036 3.37819 15.8875 2.85975 15.9795 1.9065 15.9795L1.48005 15.9795C1.36298 16.0631 1.30445 16.1551 1.30445 16.2554Z" transform="matrix(1 0 0 -1.01112 504.886 258.137)"/><path d="M3.77766 10.2511 3.5471 10.1624C3.38157 10.1033 3.14509 10.0442 2.83768 9.98508 2.53026 9.92596 2.18738 9.88458 1.80902 9.86093L1.47205 9.86093 1.47205 10.6768 1.80902 10.6768C2.36473 10.7004 2.87906 10.7891 3.35201 10.9428 3.82495 11.0965 4.15602 11.2384 4.34519 11.3684 4.53437 11.4985 4.6999 11.6286 4.84179 11.7586 4.86544 11.7941 4.93638 11.8118 5.05461 11.8118 5.16103 11.8118 5.26153 11.7764 5.35612 11.7054L5.35612 6.40251 5.37385 1.08186C5.45662 0.999099 5.52756 0.945893 5.58668 0.922245 5.6458 0.898598 5.78768 0.874951 6.01233 0.851303 6.23698 0.827656 6.60351 0.815832 7.11193 0.815832L7.57305 0.815832 7.57305 0 7.37796 0C7.12967 0.035471 6.18969 0.0532065 4.55802 0.0532065 2.95 0.0532065 2.02185 0.035471 1.77355 0L1.56072 0 1.56072 0.815832 2.02185 0.815832C2.28197 0.815832 2.50662 0.815832 2.69579 0.815832 2.88497 0.815832 3.03277 0.821744 3.13918 0.833568 3.24559 0.845392 3.34018 0.863127 3.42295 0.886774 3.50572 0.910422 3.55301 0.922245 3.56483 0.922245 3.57666 0.922245 3.61213 0.951805 3.67125 1.01092 3.73036 1.07004 3.76584 1.09369 3.77766 1.08186L3.77766 10.2511Z" transform="matrix(1 0 0 -1.01112 520.339 261.942)"/></g></g></g></g></g></g><g clip-path="url(#clip5)"><g><g><g><g><g><path d="M0.942896 0.0219278C0.694381 0.0219278 0.570123 0.0877113 0.570123 0.219278 0.570123 0.248515 0.592051 0.350845 0.635907 0.526268 0.709 0.80402 0.782092 0.957515 0.855185 0.986752 0.899041 1.00137 1.00868 1.00868 1.1841 1.00868L1.31567 1.00868C2.19278 1.00868 2.74829 1.05984 2.98218 1.16217 2.9968 1.16217 3.01142 1.16948 3.02604 1.1841 3.09913 1.21334 3.17953 1.38145 3.26725 1.68844 3.35496 1.99543 3.71311 3.42805 4.34171 5.9863 4.51713 6.64413 4.6487 7.16309 4.73641 7.54317 5.75971 11.6364 6.27136 13.6976 6.27136 13.7268 6.24212 13.7853 6.2275 13.8218 6.2275 13.8365 6.08132 13.9242 5.56236 13.968 4.67063 13.968L4.23207 13.968C4.1005 14.0557 4.07127 14.2385 4.14436 14.5162 4.20283 14.7355 4.24669 14.8671 4.27593 14.9109 4.30516 14.9548 4.40749 14.9767 4.58291 14.9767L4.67063 14.9767C5.72316 14.9475 6.79032 14.9328 7.87209 14.9328 9.65555 14.9328 10.5911 14.9475 10.6788 14.9767L10.8981 14.9767C11.0005 14.8744 11.0516 14.794 11.0516 14.7355 11.0516 14.677 11.0297 14.5528 10.9858 14.3627 10.942 14.1727 10.8908 14.0557 10.8323 14.0119 10.7885 13.9826 10.6204 13.968 10.328 13.968 9.87483 13.968 9.40704 13.9461 8.92462 13.9022 8.71996 13.8584 8.58109 13.778 8.50799 13.661 8.40567 13.4564 8.03289 12.0603 7.38968 9.47282 7.22887 8.78575 7.06807 8.1206 6.90726 7.47739 5.88397 3.44267 5.37232 1.38145 5.37232 1.29374 5.37232 1.19141 5.44541 1.12563 5.59159 1.09639 5.73778 1.06715 6.11786 1.03792 6.73184 1.00868L7.43353 1.00868C7.52124 0.891732 7.5651 0.825948 7.5651 0.811329 7.5651 0.796711 7.54317 0.665144 7.49932 0.416629 7.44084 0.226587 7.36775 0.0877113 7.28004 0L6.92919 0C6.38831 0.0292371 5.38694 0.0438556 3.92508 0.0438556 3.39881 0.0438556 2.9164 0.0438556 2.47784 0.0438556 2.03929 0.0438556 1.68844 0.0438556 1.42531 0.0438556 1.16217 0.0438556 1.00137 0.0365464 0.942896 0.0219278Z" transform="matrix(1 0 0 -1.03508 667.812 231.145)"/><path d="M3.30213 8.96072 3.10059 8.8832C2.9559 8.83153 2.74919 8.77985 2.48048 8.72817 2.21176 8.6765 1.91203 8.64032 1.5813 8.61965L1.28675 8.61965 1.28675 9.33279 1.5813 9.33279C2.06706 9.35346 2.51665 9.43097 2.93006 9.56533 3.34347 9.69969 3.63286 9.82372 3.79823 9.9374 3.96359 10.0511 4.10829 10.1648 4.23231 10.2785 4.25298 10.3095 4.31499 10.325 4.41835 10.325 4.51136 10.325 4.59921 10.294 4.6819 10.232L4.6819 5.59657 4.6974 0.945681C4.76975 0.873334 4.83176 0.826825 4.88344 0.806154 4.93511 0.785484 5.05914 0.764813 5.25551 0.744143 5.45188 0.723472 5.77227 0.713137 6.21669 0.713137L6.61977 0.713137 6.61977 0 6.44924 0C6.23219 0.0310059 5.41054 0.0465089 3.98426 0.0465089 2.57866 0.0465089 1.76734 0.0310059 1.5503 0L1.36426 0 1.36426 0.713137 1.76734 0.713137C1.99472 0.713137 2.19109 0.713137 2.35645 0.713137 2.52182 0.713137 2.65101 0.718304 2.74403 0.72864 2.83704 0.738975 2.91973 0.754478 2.99207 0.775149 3.06442 0.795819 3.10576 0.806154 3.1161 0.806154 3.12643 0.806154 3.15744 0.831993 3.20912 0.883669 3.26079 0.935346 3.2918 0.956017 3.30213 0.945681L3.30213 8.96072Z" transform="matrix(1 0 0 -1.03508 678.184 234.549)"/></g></g></g></g></g></g><g clip-path="url(#clip6)"><g><g><g><g><g><path d="M0.942896 0.0219278C0.694381 0.0219278 0.570123 0.0877113 0.570123 0.219278 0.570123 0.248515 0.592051 0.350845 0.635907 0.526268 0.709 0.80402 0.782092 0.957515 0.855185 0.986752 0.899041 1.00137 1.00868 1.00868 1.1841 1.00868L1.31567 1.00868C2.19278 1.00868 2.74829 1.05984 2.98218 1.16217 2.9968 1.16217 3.01142 1.16948 3.02604 1.1841 3.09913 1.21334 3.17953 1.38145 3.26725 1.68844 3.35496 1.99543 3.71311 3.42805 4.34171 5.9863 4.51713 6.64413 4.6487 7.16309 4.73641 7.54317 5.75971 11.6364 6.27136 13.6976 6.27136 13.7268 6.24212 13.7853 6.2275 13.8218 6.2275 13.8365 6.08132 13.9242 5.56236 13.968 4.67063 13.968L4.23207 13.968C4.1005 14.0557 4.07127 14.2385 4.14436 14.5162 4.20283 14.7355 4.24669 14.8671 4.27593 14.9109 4.30516 14.9548 4.40749 14.9767 4.58291 14.9767L4.67063 14.9767C5.72316 14.9475 6.79032 14.9328 7.87209 14.9328 9.65555 14.9328 10.5911 14.9475 10.6788 14.9767L10.8981 14.9767C11.0005 14.8744 11.0516 14.794 11.0516 14.7355 11.0516 14.677 11.0297 14.5528 10.9858 14.3627 10.942 14.1727 10.8908 14.0557 10.8323 14.0119 10.7885 13.9826 10.6204 13.968 10.328 13.968 9.87483 13.968 9.40704 13.9461 8.92462 13.9022 8.71996 13.8584 8.58109 13.778 8.50799 13.661 8.40567 13.4564 8.03289 12.0603 7.38968 9.47282 7.22887 8.78575 7.06807 8.1206 6.90726 7.47739 5.88397 3.44267 5.37232 1.38145 5.37232 1.29374 5.37232 1.19141 5.44541 1.12563 5.59159 1.09639 5.73778 1.06715 6.11786 1.03792 6.73184 1.00868L7.43353 1.00868C7.52124 0.891732 7.5651 0.825948 7.5651 0.811329 7.5651 0.796711 7.54317 0.665144 7.49932 0.416629 7.44084 0.226587 7.36775 0.0877113 7.28004 0L6.92919 0C6.38831 0.0292371 5.38694 0.0438556 3.92508 0.0438556 3.39881 0.0438556 2.9164 0.0438556 2.47784 0.0438556 2.03929 0.0438556 1.68844 0.0438556 1.42531 0.0438556 1.16217 0.0438556 1.00137 0.0365464 0.942896 0.0219278Z" transform="matrix(1 0 0 -1.03508 668.68 433.934)"/><path d="M1.68982 6.65077C1.41077 6.65077 1.18856 6.74379 1.0232 6.92983 0.857831 7.11586 0.775149 7.34324 0.775149 7.61196 0.775149 8.34577 1.04903 8.98139 1.59681 9.51882 2.14458 10.0563 2.82671 10.325 3.6432 10.325 4.58371 10.325 5.3692 10.0356 5.99965 9.45681 6.6301 8.87803 6.9505 8.12872 6.96083 7.20888 6.96083 6.76446 6.85748 6.34071 6.65077 5.93764 6.44407 5.53456 6.19602 5.18316 5.90663 4.88344 5.61724 4.58371 5.20383 4.2013 4.66639 3.73622 4.29432 3.41582 3.77756 2.9404 3.1161 2.30994L2.20142 1.44178 3.37965 1.42627C5.00229 1.42627 5.86529 1.45211 5.96864 1.50379 6.04099 1.52446 6.16501 1.98438 6.34071 2.88355L6.34071 2.93006 6.96083 2.93006 6.96083 2.88355C6.9505 2.85255 6.88332 2.38229 6.75929 1.47278 6.63527 0.563275 6.55776 0.0878502 6.52675 0.0465089L6.52675 0 0.775149 0 0.775149 0.294556 0.775149 0.480592C0.775149 0.552939 0.806154 0.630454 0.868166 0.713137 0.930178 0.795819 1.08521 0.976687 1.33326 1.25574 1.63298 1.58647 1.89136 1.87586 2.1084 2.12391 2.20142 2.22726 2.37712 2.41846 2.6355 2.69752 2.89389 2.97657 3.06959 3.16777 3.16261 3.27113 3.25562 3.37448 3.40549 3.54501 3.61219 3.78272 3.8189 4.02044 3.96359 4.19614 4.04628 4.30983 4.12896 4.42351 4.24781 4.57854 4.40284 4.77491 4.55787 4.97129 4.66639 5.13665 4.72841 5.27101 4.79042 5.40537 4.86793 5.55523 4.96095 5.7206 5.05397 5.88596 5.12115 6.05133 5.16249 6.21669 5.20383 6.38206 5.24 6.53709 5.27101 6.68178 5.30202 6.82648 5.31752 6.99701 5.31752 7.19338 5.31752 7.8445 5.14182 8.40778 4.79042 8.8832 4.43902 9.35863 3.93775 9.59634 3.28663 9.59634 2.94556 9.59634 2.64584 9.50849 2.38746 9.33279 2.12907 9.15709 1.94821 8.98656 1.84485 8.82119 1.7415 8.65582 1.68982 8.55764 1.68982 8.52663 1.68982 8.5163 1.71566 8.51113 1.76734 8.51113 1.95337 8.51113 2.14458 8.43878 2.34095 8.29409 2.53732 8.14939 2.6355 7.91168 2.6355 7.58095 2.6355 7.32257 2.55282 7.10553 2.38746 6.92983 2.22209 6.75413 1.98955 6.66111 1.68982 6.65077Z" transform="matrix(1 0 0 -1.03508 679.052 437.339)"/></g></g></g></g></g></g><g clip-path="url(#clip7)"><g><g><g><g><g><path d="M0.942447 0.0219174C0.69405 0.0219174 0.569852 0.0876695 0.569852 0.219174 0.569852 0.248397 0.591769 0.350678 0.635604 0.526017 0.708662 0.803637 0.78172 0.957059 0.854778 0.986282 0.898612 1.00089 1.0082 1.0082 1.18354 1.0082L1.31504 1.0082C2.19174 1.0082 2.74698 1.05934 2.98076 1.16162 2.99537 1.16162 3.00999 1.16893 3.0246 1.18354 3.09766 1.21276 3.17802 1.38079 3.26569 1.68764 3.35336 1.99448 3.71134 3.42642 4.33964 5.98344 4.51498 6.64096 4.64648 7.15968 4.73415 7.53958 5.75696 11.6308 6.26837 13.6911 6.26837 13.7203 6.23915 13.7787 6.22453 13.8153 6.22453 13.8299 6.07842 13.9175 5.55971 13.9614 4.6684 13.9614L4.23005 13.9614C4.09855 14.049 4.06933 14.2317 4.14238 14.5093 4.20083 14.7285 4.24467 14.86 4.27389 14.9038 4.30311 14.9476 4.40539 14.9696 4.58073 14.9696L4.6684 14.9696C5.72043 14.9403 6.78708 14.9257 7.86834 14.9257 9.65095 14.9257 10.5861 14.9403 10.6738 14.9696L10.8929 14.9696C10.9952 14.8673 11.0464 14.7869 11.0464 14.7285 11.0464 14.67 11.0244 14.5458 10.9806 14.3559 10.9368 14.1659 10.8856 14.049 10.8272 14.0052 10.7833 13.976 10.6153 13.9614 10.3231 13.9614 9.87012 13.9614 9.40255 13.9395 8.92037 13.8956 8.71581 13.8518 8.577 13.7714 8.50394 13.6545 8.40166 13.45 8.02907 12.0546 7.38616 9.46831 7.22543 8.78156 7.0647 8.11673 6.90397 7.47382 5.88116 3.44103 5.36976 1.38079 5.36976 1.29313 5.36976 1.19084 5.44281 1.12509 5.58893 1.09587 5.73505 1.06665 6.11495 1.03742 6.72863 1.0082L7.42999 1.0082C7.51766 0.891307 7.56149 0.825554 7.56149 0.810943 7.56149 0.796331 7.53958 0.664827 7.49574 0.41643 7.4373 0.22648 7.36424 0.0876695 7.27657 0L6.92589 0C6.38526 0.0292232 5.38437 0.0438347 3.92321 0.0438347 3.39719 0.0438347 2.91501 0.0438347 2.47666 0.0438347 2.03832 0.0438347 1.68764 0.0438347 1.42463 0.0438347 1.16162 0.0438347 1.00089 0.036529 0.942447 0.0219174Z" transform="matrix(1 0 0 -1.01653 866.6 430.036)"/><path d="M1.96794 7.17446C1.68902 7.17446 1.47208 7.26226 1.31712 7.43788 1.16217 7.6135 1.07953 7.84077 1.0692 8.11969 1.0692 8.68786 1.31712 9.19405 1.81298 9.63825 2.30884 10.0825 2.908 10.3046 3.61047 10.3046 3.97204 10.3046 4.1993 10.2994 4.29228 10.2891 5.05673 10.1651 5.64039 9.89135 6.04328 9.4678 6.44616 9.04426 6.65277 8.58455 6.6631 8.0887 6.6631 7.55152 6.48748 7.02983 6.13625 6.52364 5.78502 6.01745 5.29949 5.65072 4.67967 5.42345L4.63318 5.39246C4.63318 5.38213 4.67967 5.36664 4.77264 5.34598 4.86561 5.32532 5.0154 5.27883 5.22201 5.20652 5.42862 5.1342 5.6249 5.02573 5.81084 4.88111 6.65794 4.3336 7.08148 3.61047 7.08148 2.71173 7.08148 1.89563 6.76124 1.18283 6.12076 0.573337 5.48027-0.0361564 4.66934-0.340903 3.68795-0.340903 2.86152-0.340903 2.14872-0.1188 1.54956 0.325407 0.950396 0.769614 0.650815 1.33262 0.650815 2.01443 0.650815 2.30368 0.743788 2.53611 0.929735 2.71173 1.11568 2.88734 1.34812 2.98032 1.62704 2.99065 1.91629 2.99065 2.15389 2.89767 2.33983 2.71173 2.52578 2.52578 2.61875 2.29335 2.61875 2.01443 2.61875 1.90079 2.60326 1.79749 2.57227 1.70451 2.54128 1.61154 2.50512 1.5289 2.4638 1.45659 2.42248 1.38427 2.36566 1.32229 2.29335 1.27064 2.22103 1.21899 2.15905 1.17766 2.1074 1.14667 2.05575 1.11568 2.0041 1.09502 1.95244 1.08469 1.90079 1.07436 1.85947 1.05887 1.82848 1.0382L1.7665 1.02271C2.29335 0.557841 2.93383 0.325407 3.68795 0.325407 4.25612 0.325407 4.68483 0.599163 4.97408 1.14667 5.1497 1.48758 5.23751 2.00926 5.23751 2.71173L5.23751 3.02164C5.23751 4.00303 4.90694 4.65901 4.24579 4.98958 4.09083 5.05156 3.77576 5.08772 3.30056 5.09805L2.64974 5.11354 2.60326 5.14453C2.5826 5.17553 2.57227 5.25817 2.57227 5.39246 2.57227 5.57841 2.61359 5.67138 2.69623 5.67138 2.98548 5.67138 3.28506 5.69721 3.59498 5.74886 3.94621 5.80051 4.26645 6.01745 4.5557 6.39968 4.84495 6.7819 4.98958 7.3604 4.98958 8.13518L4.98958 8.25915C4.98958 8.84798 4.8088 9.25603 4.44723 9.4833 4.21996 9.62792 3.9772 9.70024 3.71894 9.70024 3.38837 9.70024 3.08362 9.64342 2.8047 9.52979 2.52578 9.41615 2.3295 9.29735 2.21587 9.17339 2.10223 9.04942 2.04542 8.98744 2.04542 8.98744L2.0919 8.98744C2.1229 8.97711 2.16422 8.96678 2.21587 8.95645 2.26752 8.94612 2.31917 8.92029 2.37082 8.87897 2.42248 8.83765 2.48446 8.80149 2.55677 8.7705 2.62908 8.73951 2.68074 8.68269 2.71173 8.60005 2.74272 8.51741 2.78404 8.43993 2.83569 8.36762 2.88734 8.2953 2.90284 8.192 2.88218 8.0577 2.88218 7.83044 2.80987 7.62899 2.66524 7.45338 2.52062 7.27776 2.28818 7.18479 1.96794 7.17446Z" transform="matrix(1 0 0 -1.01653 876.967 433.378)"/></g></g></g></g></g></g><g clip-path="url(#clip8)"><g><g><g><g><g><path d="M1.30445 16.2554C1.30445 16.6234 1.41315 16.916 1.63056 17.1334L1.9065 17.1334C2.6089 17.0833 3.48689 17.0582 4.54049 17.0582 6.51388 17.0582 7.67618 17.0833 8.02738 17.1334L8.27823 17.1334C8.37858 17.0331 8.42875 16.9578 8.42875 16.9077 8.42875 16.8575 8.41202 16.707 8.37858 16.4561 8.29496 16.2053 8.2197 16.0464 8.15281 15.9795L7.62601 15.9795C7.25809 15.9461 7.00723 15.9293 6.87344 15.9293 6.38845 15.8457 6.12088 15.7203 6.0707 15.553 6.0707 15.5196 6.3132 13.4208 6.79819 9.25657 7.28317 5.09237 7.53403 2.99354 7.55075 2.9601L9.382 5.89511C10.6028 7.85178 11.8237 9.82518 13.0445 11.8153 14.2653 13.8054 14.8925 14.8339 14.9259 14.9008 14.9928 15.0179 15.0262 15.1433 15.0262 15.2771 15.0262 15.6785 14.6583 15.9126 13.9225 15.9795 13.6215 15.9795 13.4709 16.0715 13.4709 16.2554 13.4709 16.2722 13.4877 16.3809 13.5211 16.5816 13.5713 16.8157 13.6215 16.9662 13.6716 17.0331 13.7218 17.1 13.8305 17.1334 13.9977 17.1334 14.0312 17.1334 14.1315 17.1334 14.2988 17.1334 14.466 17.1334 14.7503 17.1251 15.1517 17.1083 15.553 17.0916 16.0882 17.0833 16.7572 17.0833 17.9111 17.0833 18.6386 17.1 18.9396 17.1334L19.1152 17.1334C19.2323 17.0164 19.2908 16.9244 19.2908 16.8575 19.2908 16.5732 19.2155 16.3056 19.065 16.0548 19.0149 16.0046 18.8727 15.9795 18.6386 15.9795 18.4212 15.9628 18.2205 15.9461 18.0365 15.9293 17.8526 15.9126 17.677 15.8708 17.5097 15.8039 17.3425 15.737 17.2087 15.6785 17.1083 15.6283 17.008 15.5781 16.9077 15.5112 16.8073 15.4276 16.707 15.344 16.6234 15.2855 16.5565 15.252 16.4896 15.2186 16.4227 15.1433 16.3558 15.0262 16.2889 14.9092 16.2304 14.8506 16.1802 14.8506L11.3387 7.07413C8.3284 2.20753 6.7731-0.284303 6.67276-0.401369 6.62259-0.434816 6.56405-0.476626 6.49716-0.526797L6.04562-0.551882 5.87002-0.551882C5.56899-0.551882 5.41848-0.493349 5.41848-0.376283 5.36831-0.275941 5.0422 2.39985 4.44014 7.65109 3.80464 12.9692 3.47853 15.6534 3.46181 15.7036 3.37819 15.8875 2.85975 15.9795 1.9065 15.9795L1.48005 15.9795C1.36298 16.0631 1.30445 16.1551 1.30445 16.2554Z" transform="matrix(1 0 0 -1.01112 506.171 457.682)"/><path d="M1.93317 7.60852C1.61393 7.60852 1.35972 7.71494 1.17054 7.92776 0.981364 8.14059 0.886774 8.40071 0.886774 8.70813 0.886774 9.5476 1.2001 10.2748 1.82676 10.8896 2.45341 11.5044 3.23377 11.8118 4.16784 11.8118 5.24379 11.8118 6.14239 11.4808 6.86363 10.8186 7.58488 10.1565 7.95141 9.29931 7.96323 8.247 7.96323 7.73858 7.845 7.25381 7.60852 6.79269 7.37205 6.33157 7.08828 5.92957 6.75722 5.58668 6.42616 5.24379 5.95321 4.80632 5.33838 4.27425 4.91273 3.90772 4.32155 3.36383 3.56483 2.64259L2.51844 1.6494 3.86634 1.63166C5.72265 1.63166 6.70993 1.66122 6.82816 1.72034 6.91093 1.74399 7.05281 2.27014 7.25381 3.2988L7.25381 3.35201 7.96323 3.35201 7.96323 3.2988C7.95141 3.26333 7.87456 2.72535 7.73267 1.68487 7.59079 0.644389 7.50211 0.100501 7.46664 0.0532065L7.46664 0 0.886774 0 0.886774 0.336974 0.886774 0.5498C0.886774 0.632566 0.922245 0.721243 0.993187 0.815832 1.06413 0.910422 1.24148 1.11734 1.52525 1.43657 1.86814 1.81493 2.16373 2.14599 2.41203 2.42976 2.51844 2.548 2.71944 2.76674 3.01503 3.08597 3.31062 3.40521 3.51163 3.62395 3.61804 3.74219 3.72445 3.86042 3.8959 4.05552 4.13237 4.32746 4.36884 4.5994 4.53437 4.80041 4.62896 4.93047 4.72355 5.06053 4.85952 5.23788 5.03688 5.46253 5.21423 5.68718 5.33838 5.87636 5.40932 6.03007 5.48027 6.18377 5.56894 6.35522 5.67536 6.5444 5.78177 6.73357 5.85862 6.92275 5.90592 7.11193 5.95321 7.30111 5.9946 7.47846 6.03007 7.644 6.06554 7.80953 6.08327 8.00462 6.08327 8.22927 6.08327 8.97416 5.88227 9.61855 5.48027 10.1624 5.07826 10.7063 4.50481 10.9783 3.75992 10.9783 3.36974 10.9783 3.02686 10.8778 2.73127 10.6768 2.43567 10.4758 2.22876 10.2807 2.11052 10.0915 1.99229 9.90231 1.93317 9.78999 1.93317 9.75452 1.93317 9.74269 1.96273 9.73678 2.02185 9.73678 2.23467 9.73678 2.45341 9.65402 2.67806 9.48849 2.90271 9.32296 3.01503 9.05101 3.01503 8.67265 3.01503 8.37706 2.92044 8.12877 2.73127 7.92776 2.54209 7.72676 2.27605 7.62035 1.93317 7.60852Z" transform="matrix(1 0 0 -1.01112 521.623 461.487)"/></g></g></g></g></g></g><g clip-path="url(#clip9)"><g><g><path d="M11.0316 5.51579C11.0316 5.83828 11.0093 6.16078 10.9537 6.47215 10.8981 6.78353 10.8092 7.10602 10.698 7.40628 10.5868 7.70653 10.4533 7.99567 10.2976 8.27368 10.1308 8.55169 9.95288 8.81859 9.74159 9.06324 9.54142 9.30789 9.30789 9.54142 9.06324 9.74159 8.81859 9.95288 8.55169 10.1308 8.27368 10.2976 7.99567 10.4533 7.70653 10.5868 7.40628 10.698 7.10602 10.8092 6.78353 10.8981 6.47215 10.9537 6.16078 11.0093 5.83828 11.0316 5.51579 11.0316 5.19329 11.0316 4.8708 11.0093 4.55942 10.9537 4.24804 10.8981 3.92555 10.8092 3.62529 10.698 3.32504 10.5868 3.03591 10.4533 2.75789 10.2976 2.47988 10.1308 2.21299 9.95288 1.96833 9.74159 1.72368 9.54142 1.50127 9.30789 1.28998 9.06324 1.08981 8.81859 0.900763 8.55169 0.733955 8.27368 0.578268 7.99567 0.444821 7.70653 0.333616 7.40628 0.222411 7.10602 0.144567 6.78353 0.0889643 6.47215 0.0333616 6.16078 0 5.83828 0 5.51579 0 5.19329 0.0333616 4.8708 0.0889643 4.55942 0.144567 4.24804 0.222411 3.92555 0.333616 3.62529 0.444821 3.32504 0.578268 3.03591 0.733955 2.75789 0.900763 2.47988 1.08981 2.21299 1.28998 1.96833 1.50127 1.72368 1.72368 1.50127 1.96833 1.28998 2.21299 1.08981 2.47988 0.900763 2.75789 0.733955 3.03591 0.578268 3.32504 0.444821 3.62529 0.333616 3.92555 0.222411 4.24804 0.144567 4.55942 0.0889643 4.8708 0.0333616 5.19329 0 5.51579 0 5.83828 0 6.16078 0.0333616 6.47215 0.0889643 6.78353 0.144567 7.10602 0.222411 7.40628 0.333616 7.70653 0.444821 7.99567 0.578268 8.27368 0.733955 8.55169 0.900763 8.81859 1.08981 9.06324 1.28998 9.30789 1.50127 9.54142 1.72368 9.74159 1.96833 9.95288 2.21299 10.1308 2.47988 10.2976 2.75789 10.4533 3.03591 10.5868 3.32504 10.698 3.62529 10.8092 3.92555 10.8981 4.24804 10.9537 4.55942 11.0093 4.8708 11.0205 5.3601 11.0316 5.51579 11.0427 5.67147 11.0427 5.3601 11.0316 5.51579" transform="matrix(1 0 0 1.00009 603.594 324.753)"/><path d="M11.0316 5.51579C11.0316 5.83828 11.0093 6.16078 10.9537 6.47215 10.8981 6.78353 10.8092 7.10602 10.698 7.40628 10.5868 7.70653 10.4533 7.99567 10.2976 8.27368 10.1308 8.55169 9.95288 8.81859 9.74159 9.06324 9.54142 9.30789 9.30789 9.54142 9.06324 9.74159 8.81859 9.95288 8.55169 10.1308 8.27368 10.2976 7.99567 10.4533 7.70653 10.5868 7.40628 10.698 7.10602 10.8092 6.78353 10.8981 6.47215 10.9537 6.16078 11.0093 5.83828 11.0316 5.51579 11.0316 5.19329 11.0316 4.8708 11.0093 4.55942 10.9537 4.24804 10.8981 3.92555 10.8092 3.62529 10.698 3.32504 10.5868 3.03591 10.4533 2.75789 10.2976 2.47988 10.1308 2.21299 9.95288 1.96833 9.74159 1.72368 9.54142 1.50127 9.30789 1.28998 9.06324 1.08981 8.81859 0.900763 8.55169 0.733955 8.27368 0.578268 7.99567 0.444821 7.70653 0.333616 7.40628 0.222411 7.10602 0.144567 6.78353 0.0889643 6.47215 0.0333616 6.16078 0 5.83828 0 5.51579 0 5.19329 0.0333616 4.8708 0.0889643 4.55942 0.144567 4.24804 0.222411 3.92555 0.333616 3.62529 0.444821 3.32504 0.578268 3.03591 0.733955 2.75789 0.900763 2.47988 1.08981 2.21299 1.28998 1.96833 1.50127 1.72368 1.72368 1.50127 1.96833 1.28998 2.21299 1.08981 2.47988 0.900763 2.75789 0.733955 3.03591 0.578268 3.32504 0.444821 3.62529 0.333616 3.92555 0.222411 4.24804 0.144567 4.55942 0.0889643 4.8708 0.0333616 5.19329 0 5.51579 0 5.83828 0 6.16078 0.0333616 6.47215 0.0889643 6.78353 0.144567 7.10602 0.222411 7.40628 0.333616 7.70653 0.444821 7.99567 0.578268 8.27368 0.733955 8.55169 0.900763 8.81859 1.08981 9.06324 1.28998 9.30789 1.50127 9.54142 1.72368 9.74159 1.96833 9.95288 2.21299 10.1308 2.47988 10.2976 2.75789 10.4533 3.03591 10.5868 3.32504 10.698 3.62529 10.8092 3.92555 10.8981 4.24804 10.9537 4.55942 11.0093 4.8708 11.0205 5.3601 11.0316 5.51579 11.0427 5.67147 11.0427 5.3601 11.0316 5.51579" stroke="#000000" stroke-width="4.44821" stroke-linecap="round" fill="none" transform="matrix(1 0 0 1.00009 603.594 324.753)"/><path d="M11.0316 5.51579C11.0316 5.83828 11.0093 6.16078 10.9537 6.47215 10.8981 6.78353 10.8092 7.10602 10.698 7.40628 10.5868 7.70653 10.4533 7.99567 10.2976 8.27368 10.1308 8.55169 9.95288 8.81859 9.74159 9.06324 9.54142 9.30789 9.30789 9.54142 9.06324 9.74159 8.81859 9.95288 8.55169 10.1308 8.27368 10.2976 7.99567 10.4533 7.70653 10.5868 7.40628 10.698 7.10602 10.8092 6.78353 10.8981 6.47215 10.9537 6.16078 11.0093 5.83828 11.0316 5.51579 11.0316 5.19329 11.0316 4.8708 11.0093 4.55942 10.9537 4.24804 10.8981 3.92555 10.8092 3.62529 10.698 3.32504 10.5868 3.03591 10.4533 2.75789 10.2976 2.47988 10.1308 2.21299 9.95288 1.96833 9.74159 1.72368 9.54142 1.50127 9.30789 1.28998 9.06324 1.08981 8.81859 0.900763 8.55169 0.733955 8.27368 0.578268 7.99567 0.444821 7.70653 0.333616 7.40628 0.222411 7.10602 0.144567 6.78353 0.0889643 6.47215 0.0333616 6.16078 0 5.83828 0 5.51579 0 5.19329 0.0333616 4.8708 0.0889643 4.55942 0.144567 4.24804 0.222411 3.92555 0.333616 3.62529 0.444821 3.32504 0.578268 3.03591 0.733955 2.75789 0.900763 2.47988 1.08981 2.21299 1.28998 1.96833 1.50127 1.72368 1.72368 1.50127 1.96833 1.28998 2.21299 1.08981 2.47988 0.900763 2.75789 0.733955 3.03591 0.578268 3.32504 0.444821 3.62529 0.333616 3.92555 0.222411 4.24804 0.144567 4.55942 0.0889643 4.8708 0.0333616 5.19329 0 5.51579 0 5.83828 0 6.16078 0.0333616 6.47215 0.0889643 6.78353 0.144567 7.10602 0.222411 7.40628 0.333616 7.70653 0.444821 7.99567 0.578268 8.27368 0.733955 8.55169 0.900763 8.81859 1.08981 9.06324 1.28998 9.30789 1.50127 9.54142 1.72368 9.74159 1.96833 9.95288 2.21299 10.1308 2.47988 10.2976 2.75789 10.4533 3.03591 10.5868 3.32504 10.698 3.62529 10.8092 3.92555 10.8981 4.24804 10.9537 4.55942 11.0093 4.8708 11.0205 5.3601 11.0316 5.51579 11.0427 5.67147 11.0427 5.3601 11.0316 5.51579" transform="matrix(1 0 0 1.00009 603.594 524.94)"/><path d="M11.0316 5.51579C11.0316 5.83828 11.0093 6.16078 10.9537 6.47215 10.8981 6.78353 10.8092 7.10602 10.698 7.40628 10.5868 7.70653 10.4533 7.99567 10.2976 8.27368 10.1308 8.55169 9.95288 8.81859 9.74159 9.06324 9.54142 9.30789 9.30789 9.54142 9.06324 9.74159 8.81859 9.95288 8.55169 10.1308 8.27368 10.2976 7.99567 10.4533 7.70653 10.5868 7.40628 10.698 7.10602 10.8092 6.78353 10.8981 6.47215 10.9537 6.16078 11.0093 5.83828 11.0316 5.51579 11.0316 5.19329 11.0316 4.8708 11.0093 4.55942 10.9537 4.24804 10.8981 3.92555 10.8092 3.62529 10.698 3.32504 10.5868 3.03591 10.4533 2.75789 10.2976 2.47988 10.1308 2.21299 9.95288 1.96833 9.74159 1.72368 9.54142 1.50127 9.30789 1.28998 9.06324 1.08981 8.81859 0.900763 8.55169 0.733955 8.27368 0.578268 7.99567 0.444821 7.70653 0.333616 7.40628 0.222411 7.10602 0.144567 6.78353 0.0889643 6.47215 0.0333616 6.16078 0 5.83828 0 5.51579 0 5.19329 0.0333616 4.8708 0.0889643 4.55942 0.144567 4.24804 0.222411 3.92555 0.333616 3.62529 0.444821 3.32504 0.578268 3.03591 0.733955 2.75789 0.900763 2.47988 1.08981 2.21299 1.28998 1.96833 1.50127 1.72368 1.72368 1.50127 1.96833 1.28998 2.21299 1.08981 2.47988 0.900763 2.75789 0.733955 3.03591 0.578268 3.32504 0.444821 3.62529 0.333616 3.92555 0.222411 4.24804 0.144567 4.55942 0.0889643 4.8708 0.0333616 5.19329 0 5.51579 0 5.83828 0 6.16078 0.0333616 6.47215 0.0889643 6.78353 0.144567 7.10602 0.222411 7.40628 0.333616 7.70653 0.444821 7.99567 0.578268 8.27368 0.733955 8.55169 0.900763 8.81859 1.08981 9.06324 1.28998 9.30789 1.50127 9.54142 1.72368 9.74159 1.96833 9.95288 2.21299 10.1308 2.47988 10.2976 2.75789 10.4533 3.03591 10.5868 3.32504 10.698 3.62529 10.8092 3.92555 10.8981 4.24804 10.9537 4.55942 11.0093 4.8708 11.0205 5.3601 11.0316 5.51579 11.0427 5.67147 11.0427 5.3601 11.0316 5.51579" stroke="#000000" stroke-width="4.44821" stroke-linecap="round" fill="none" transform="matrix(1 0 0 1.00009 603.594 524.94)"/><path d="M0 0 7.4174 0 7.4174 60.6625 0 60.6625" transform="matrix(1 0 0 1.00009 238.34 314.007)"/><path d="M0 0C2.51324 0 5.0376 0 7.4174 0M0 0C1.49015 0 2.9803 0 7.4174 0M7.4174 0C7.4174 12.8665 7.4174 25.7329 7.4174 60.6625M7.4174 0C7.4174 22.052 7.4174 44.0929 7.4174 60.6625M7.4174 60.6625C5.8494 60.6625 4.29253 60.6625 0 60.6625M7.4174 60.6625C4.64838 60.6625 1.87937 60.6625 0 60.6625M0 60.6625C0 42.5138 0 24.3651 0 0M0 60.6625C0 47.3624 0 34.0622 0 0" stroke="#000000" stroke-width="1.11205" stroke-linecap="round" fill="none" transform="matrix(1 0 0 1.00009 238.34 314.007)"/><path d="M0 0-22.2411 0-11.1205-50.5428 0 0" fill-rule="evenodd" transform="matrix(1 0 0 1.00009 253.168 314.007)"/><path d="M0 0C-7.69541 0-15.3908 0-22.2411 0M0 0C-7.72877 0-15.4575 0-22.2411 0M-22.2411 0C-19.1384-14.1231-16.0247-28.235-11.1205-50.5428M-22.2411 0C-19.4276-12.7997-16.6141-25.5995-11.1205-50.5428M-11.1205-50.5428C-7.57309-34.4292-4.02563-18.3155 0 0M-11.1205-50.5428C-8.7185-39.6114-6.30534-28.6687 0 0M0 0 0 0C0 0 0 0 0 0M0 0 0 0C0 0 0 0 0 0" stroke="#000000" stroke-width="0.556027" stroke-linecap="round" fill="none" transform="matrix(1 0 0 1.00009 253.168 314.007)"/><path d="M0 0 7.4174 0 7.4174 60.6625 0 60.6625" transform="matrix(1 0 0 1.00009 549.715 225.035)"/><path d="M0 0C2.24635 0 4.4927 0 7.4174 0M0 0C2.41316 0 4.82631 0 7.4174 0M7.4174 0C7.4174 19.2274 7.4174 38.4659 7.4174 60.6625M7.4174 0C7.4174 15.6355 7.4174 31.2709 7.4174 60.6625M7.4174 60.6625C5.01536 60.6625 2.60221 60.6625 0 60.6625M7.4174 60.6625C5.88276 60.6625 4.35925 60.6625 0 60.6625M0 60.6625C0 43.2811 0 25.9108 0 0M0 60.6625C0 47.9073 0 35.1631 0 0" stroke="#000000" stroke-width="1.11205" stroke-linecap="round" fill="none" transform="matrix(1 0 0 1.00009 549.715 225.035)"/><path d="M0 0-22.2411 0-11.1205-50.5428 0 0" fill-rule="evenodd" transform="matrix(1 0 0 1.00009 564.543 225.035)"/><path d="M0 0C-5.32674 0-10.6535 0-22.2411 0M0 0C-8.68514 0-17.3703 0-22.2411 0M-22.2411 0C-18.5713-16.6808-14.9015-33.3616-11.1205-50.5428M-22.2411 0C-19.561-12.1659-16.8921-24.3206-11.1205-50.5428M-11.1205-50.5428C-6.81689-30.9818-2.51324-11.4097 0 0M-11.1205-50.5428C-8.02903-36.4754-4.9264-22.3968 0 0M0 0 0 0C0 0 0 0 0 0M0 0 0 0C0 0 0 0 0 0" stroke="#000000" stroke-width="0.556027" stroke-linecap="round" fill="none" transform="matrix(1 0 0 1.00009 564.543 225.035)"/><path d="M0 0 7.4174 0 7.4174 60.6625 0 60.6625" transform="matrix(1 0 0 1.00009 549.715 425.222)"/><path d="M0 0C2.89134 0 5.7938 0 7.4174 0M0 0C2.44652 0 4.89304 0 7.4174 0M7.4174 0C7.4174 14.5901 7.4174 29.1914 7.4174 60.6625M7.4174 0C7.4174 23.4866 7.4174 46.9731 7.4174 60.6625M7.4174 60.6625C5.34898 60.6625 3.28056 60.6625 0 60.6625M7.4174 60.6625C5.70484 60.6625 3.99227 60.6625 0 60.6625M0 60.6625C0 47.6181 0 34.5849 0 0M0 60.6625C0 45.0382 0 29.4138 0 0" stroke="#000000" stroke-width="1.11205" stroke-linecap="round" fill="none" transform="matrix(1 0 0 1.00009 549.715 425.222)"/><path d="M0 0-22.2411 0-11.1205-50.5428 0 0" fill-rule="evenodd" transform="matrix(1 0 0 1.00009 564.543 425.222)"/><path d="M0 0C-5.49355 0-10.9982 0-22.2411 0M0 0C-7.22835 0-14.4567 0-22.2411 0M-22.2411 0C-18.4267-17.3258-14.6124-34.6516-11.1205-50.5428M-22.2411 0C-18.7047-16.0581-15.1795-32.1161-11.1205-50.5428M-11.1205-50.5428C-8.54057-38.8107-5.94949-27.0674 0 0M-11.1205-50.5428C-6.70568-30.5036-2.30195-10.4533 0 0M0 0 0 0C0 0 0 0 0 0M0 0 0 0C0 0 0 0 0 0" stroke="#000000" stroke-width="0.556027" stroke-linecap="round" fill="none" transform="matrix(1 0 0 1.00009 564.543 425.222)"/></g></g></g><g clip-path="url(#clip10)"><g><g><g><g><g><path d="M1.50708 18.7806C1.50708 19.2057 1.63268 19.5438 1.88386 19.795L2.20266 19.795C3.01417 19.737 4.02855 19.708 5.24581 19.708 7.52576 19.708 8.86862 19.737 9.27437 19.795L9.56419 19.795C9.68012 19.6791 9.73809 19.5921 9.73809 19.5341 9.73809 19.4762 9.71877 19.3023 9.68012 19.0125 9.58351 18.7226 9.49657 18.5391 9.41928 18.4618L8.81065 18.4618C8.38558 18.4231 8.09575 18.4038 7.94118 18.4038 7.38085 18.3072 7.07171 18.1623 7.01374 17.9691 7.01374 17.9304 7.2939 15.5056 7.85423 10.6945 8.41456 5.88343 8.70438 3.45857 8.7237 3.41992L10.8394 6.81086C12.2499 9.07149 13.6604 11.3514 15.0708 13.6507 16.4813 15.95 17.2059 17.1383 17.2445 17.2155 17.3218 17.3508 17.3605 17.4957 17.3605 17.6503 17.3605 18.114 16.9354 18.3845 16.0852 18.4618 15.7374 18.4618 15.5635 18.5681 15.5635 18.7806 15.5635 18.7999 15.5829 18.9255 15.6215 19.1574 15.6795 19.4279 15.7374 19.6018 15.7954 19.6791 15.8534 19.7563 15.979 19.795 16.1722 19.795 16.2108 19.795 16.3268 19.795 16.52 19.795 16.7132 19.795 17.0417 19.7853 17.5054 19.766 17.9691 19.7467 18.5874 19.737 19.3602 19.737 20.6934 19.737 21.5339 19.7563 21.8817 19.795L22.0846 19.795C22.2198 19.6597 22.2875 19.5535 22.2875 19.4762 22.2875 19.1477 22.2005 18.8386 22.0266 18.5487 21.9687 18.4908 21.8044 18.4618 21.5339 18.4618 21.2827 18.4425 21.0509 18.4231 20.8383 18.4038 20.6258 18.3845 20.4229 18.3362 20.2297 18.2589 20.0365 18.1816 19.8819 18.114 19.766 18.056 19.6501 17.9981 19.5341 17.9208 19.4182 17.8242 19.3023 17.7276 19.2057 17.6599 19.1284 17.6213 19.0511 17.5827 18.9738 17.4957 18.8965 17.3605 18.8192 17.2252 18.7516 17.1576 18.6936 17.1576L13.1 8.17304C9.62216 2.55045 7.82525-0.328467 7.70932-0.463718 7.65135-0.502362 7.58373-0.550666 7.50644-0.60863L6.98476-0.637613 6.78188-0.637613C6.43409-0.637613 6.2602-0.569987 6.2602-0.434736 6.20223-0.318806 5.82546 2.77265 5.12989 8.83963 4.39566 14.9839 4.01889 18.085 3.99957 18.143 3.90296 18.3555 3.30399 18.4618 2.20266 18.4618L1.70996 18.4618C1.57471 18.5584 1.50708 18.6647 1.50708 18.7806Z" transform="matrix(1 0 0 -1.0049 229.518 245.285)"/><path d="M2.68426 5.92177C2.68426 6.3589 2.79355 6.80287 3.01211 7.25366 3.23068 7.70445 3.61317 8.12109 4.15958 8.50358 4.706 8.88607 5.36853 9.07049 6.14717 9.05683 6.99411 9.05683 7.60883 8.87241 7.99132 8.50358 8.37381 8.13475 8.57188 7.72494 8.58554 7.27415 8.58554 6.83702 8.46943 6.516 8.2372 6.31109 8.00498 6.10619 7.74543 5.9969 7.45856 5.98324 7.28098 5.98324 7.11705 6.03788 6.96679 6.14717 6.81653 6.25645 6.73456 6.43404 6.7209 6.67992 6.7209 6.89849 6.78237 7.08973 6.90532 7.25366 7.02826 7.41758 7.14437 7.54053 7.25366 7.62249 7.36294 7.70445 7.45173 7.74543 7.52004 7.74543 7.5337 7.74543 7.54053 7.75226 7.54053 7.76592 7.54053 7.8069 7.49271 7.86837 7.39709 7.95034 7.30147 8.0323 7.13071 8.10743 6.88483 8.17573 6.63894 8.24403 6.37256 8.28502 6.0857 8.29868 5.43 8.29868 4.95189 8.12109 4.65136 7.76592 4.35083 7.41075 4.19373 7.04875 4.18007 6.67992 4.18007 6.33841 4.30985 6.09936 4.56939 5.96275 4.82894 5.82615 5.2046 5.71004 5.69638 5.61441 6.18815 5.51879 6.54332 5.41634 6.76188 5.30705 7.66347 4.9109 8.11426 4.25521 8.11426 3.33996 8.11426 2.95747 8.03913 2.57498 7.88886 2.19249 7.7386 1.81 7.5132 1.42751 7.21268 1.04502 6.91215 0.662528 6.48185 0.362 5.92177 0.143434 5.3617-0.0751321 4.71966-0.191245 3.99566-0.204906 2.94381-0.204906 2.19932-0.0068302 1.76219 0.389321 1.32506 0.785471 1.09966 1.24992 1.086 1.78268 1.086 2.31543 1.22943 2.69792 1.5163 2.93015 1.80317 3.16238 2.1037 3.27849 2.41789 3.27849 2.62279 3.27849 2.81404 3.21702 2.99162 3.09407 3.16921 2.97113 3.26483 2.7594 3.27849 2.45887 3.27849 2.1037 3.15555 1.80317 2.90966 1.55728 2.66377 1.3114 2.45204 1.18845 2.27445 1.18845 2.24713 1.17479 2.22664 1.16796 2.21298 1.16796 2.19932 1.16796 2.19249 1.1543 2.19249 1.12698 2.20615 1.086 2.26079 1.03136 2.35641 0.963056 2.45204 0.894754 2.66377 0.805962 2.99162 0.696679 3.31947 0.587396 3.69513 0.539585 4.1186 0.553245 4.61038 0.553245 5.03385 0.628377 5.38902 0.778641 5.74419 0.928905 6.00373 1.12015 6.16766 1.35238 6.33158 1.5846 6.4477 1.79634 6.516 1.98758 6.5843 2.17883 6.61845 2.34958 6.61845 2.49985 6.61845 2.88234 6.47502 3.16921 6.18815 3.36045 5.90128 3.5517 5.57343 3.66781 5.2046 3.70879 4.83577 3.74977 4.43279 3.85223 3.99566 4.01615 3.55853 4.18007 3.23751 4.41913 3.0326 4.73332 2.80038 5.07483 2.68426 5.47098 2.68426 5.92177Z" transform="matrix(1 0 0 -1.0049 247.371 249.654)"/></g></g></g></g></g></g></g></svg>